<?xml version="1.0" encoding="utf-8" standalone="no"?>
<!DOCTYPE svg PUBLIC "-//W3C//DTD SVG 1.1//EN"
  "http://www.w3.org/Graphics/SVG/1.1/DTD/svg11.dtd">
<!-- Created with matplotlib (https://matplotlib.org/) -->
<svg height="337.59625pt" version="1.1" viewBox="0 0 453.17125 337.59625" width="453.17125pt" xmlns="http://www.w3.org/2000/svg" xmlns:xlink="http://www.w3.org/1999/xlink">
 <defs>
  <style type="text/css">
*{stroke-linecap:butt;stroke-linejoin:round;}
  </style>
 </defs>
 <g id="figure_1">
  <g id="patch_1">
   <path d="M 0 337.59625 
L 453.17125 337.59625 
L 453.17125 0 
L 0 0 
z
" style="fill:#ffffff;"/>
  </g>
  <g id="axes_1">
   <g id="patch_2">
    <path d="M 43.78125 300.04 
L 445.97125 300.04 
L 445.97125 7.2 
L 43.78125 7.2 
z
" style="fill:#ffffff;"/>
   </g>
   <g id="PathCollection_1">
    <defs>
     <path d="M 0 3 
C 0.795609 3 1.55874 2.683901 2.12132 2.12132 
C 2.683901 1.55874 3 0.795609 3 0 
C 3 -0.795609 2.683901 -1.55874 2.12132 -2.12132 
C 1.55874 -2.683901 0.795609 -3 0 -3 
C -0.795609 -3 -1.55874 -2.683901 -2.12132 -2.12132 
C -2.683901 -1.55874 -3 -0.795609 -3 0 
C -3 0.795609 -2.683901 1.55874 -2.12132 2.12132 
C -1.55874 2.683901 -0.795609 3 0 3 
z
" id="m2ca0583be2" style="stroke:#1f77b4;"/>
    </defs>
    <g clip-path="url(#p798955dc22)">
     <use style="fill:#1f77b4;stroke:#1f77b4;" x="62.073726" xlink:href="#m2ca0583be2" y="285.314258"/>
     <use style="fill:#1f77b4;stroke:#1f77b4;" x="63.910937" xlink:href="#m2ca0583be2" y="285.314242"/>
     <use style="fill:#1f77b4;stroke:#1f77b4;" x="65.748148" xlink:href="#m2ca0583be2" y="285.314235"/>
     <use style="fill:#1f77b4;stroke:#1f77b4;" x="67.58536" xlink:href="#m2ca0583be2" y="285.314234"/>
     <use style="fill:#1f77b4;stroke:#1f77b4;" x="69.422571" xlink:href="#m2ca0583be2" y="285.314218"/>
     <use style="fill:#1f77b4;stroke:#1f77b4;" x="71.259782" xlink:href="#m2ca0583be2" y="285.314209"/>
     <use style="fill:#1f77b4;stroke:#1f77b4;" x="73.096994" xlink:href="#m2ca0583be2" y="285.31419"/>
     <use style="fill:#1f77b4;stroke:#1f77b4;" x="74.934205" xlink:href="#m2ca0583be2" y="285.314187"/>
     <use style="fill:#1f77b4;stroke:#1f77b4;" x="76.771416" xlink:href="#m2ca0583be2" y="285.268218"/>
     <use style="fill:#1f77b4;stroke:#1f77b4;" x="78.608627" xlink:href="#m2ca0583be2" y="285.268207"/>
     <use style="fill:#1f77b4;stroke:#1f77b4;" x="80.445839" xlink:href="#m2ca0583be2" y="285.268167"/>
     <use style="fill:#1f77b4;stroke:#1f77b4;" x="82.28305" xlink:href="#m2ca0583be2" y="285.268166"/>
     <use style="fill:#1f77b4;stroke:#1f77b4;" x="84.120261" xlink:href="#m2ca0583be2" y="285.268118"/>
     <use style="fill:#1f77b4;stroke:#1f77b4;" x="85.957473" xlink:href="#m2ca0583be2" y="285.268054"/>
     <use style="fill:#1f77b4;stroke:#1f77b4;" x="87.794684" xlink:href="#m2ca0583be2" y="285.267327"/>
     <use style="fill:#1f77b4;stroke:#1f77b4;" x="89.631895" xlink:href="#m2ca0583be2" y="285.154942"/>
     <use style="fill:#1f77b4;stroke:#1f77b4;" x="91.469107" xlink:href="#m2ca0583be2" y="285.154942"/>
     <use style="fill:#1f77b4;stroke:#1f77b4;" x="93.306318" xlink:href="#m2ca0583be2" y="285.154942"/>
     <use style="fill:#1f77b4;stroke:#1f77b4;" x="95.143529" xlink:href="#m2ca0583be2" y="285.154941"/>
     <use style="fill:#1f77b4;stroke:#1f77b4;" x="96.98074" xlink:href="#m2ca0583be2" y="285.15494"/>
     <use style="fill:#1f77b4;stroke:#1f77b4;" x="98.817952" xlink:href="#m2ca0583be2" y="285.15494"/>
     <use style="fill:#1f77b4;stroke:#1f77b4;" x="100.655163" xlink:href="#m2ca0583be2" y="285.154939"/>
     <use style="fill:#1f77b4;stroke:#1f77b4;" x="102.492374" xlink:href="#m2ca0583be2" y="285.154938"/>
     <use style="fill:#1f77b4;stroke:#1f77b4;" x="104.329586" xlink:href="#m2ca0583be2" y="285.154936"/>
     <use style="fill:#1f77b4;stroke:#1f77b4;" x="106.166797" xlink:href="#m2ca0583be2" y="285.154936"/>
     <use style="fill:#1f77b4;stroke:#1f77b4;" x="108.004008" xlink:href="#m2ca0583be2" y="285.154936"/>
     <use style="fill:#1f77b4;stroke:#1f77b4;" x="109.84122" xlink:href="#m2ca0583be2" y="285.154934"/>
     <use style="fill:#1f77b4;stroke:#1f77b4;" x="111.678431" xlink:href="#m2ca0583be2" y="285.154929"/>
     <use style="fill:#1f77b4;stroke:#1f77b4;" x="113.515642" xlink:href="#m2ca0583be2" y="285.154916"/>
     <use style="fill:#1f77b4;stroke:#1f77b4;" x="115.352853" xlink:href="#m2ca0583be2" y="285.154914"/>
     <use style="fill:#1f77b4;stroke:#1f77b4;" x="117.190065" xlink:href="#m2ca0583be2" y="285.154892"/>
     <use style="fill:#1f77b4;stroke:#1f77b4;" x="119.027276" xlink:href="#m2ca0583be2" y="285.154847"/>
     <use style="fill:#1f77b4;stroke:#1f77b4;" x="120.864487" xlink:href="#m2ca0583be2" y="285.154758"/>
     <use style="fill:#1f77b4;stroke:#1f77b4;" x="122.701699" xlink:href="#m2ca0583be2" y="285.154237"/>
     <use style="fill:#1f77b4;stroke:#1f77b4;" x="124.53891" xlink:href="#m2ca0583be2" y="285.150689"/>
     <use style="fill:#1f77b4;stroke:#1f77b4;" x="126.376121" xlink:href="#m2ca0583be2" y="285.150689"/>
     <use style="fill:#1f77b4;stroke:#1f77b4;" x="128.213333" xlink:href="#m2ca0583be2" y="285.150689"/>
     <use style="fill:#1f77b4;stroke:#1f77b4;" x="130.050544" xlink:href="#m2ca0583be2" y="285.150689"/>
     <use style="fill:#1f77b4;stroke:#1f77b4;" x="131.887755" xlink:href="#m2ca0583be2" y="285.150689"/>
     <use style="fill:#1f77b4;stroke:#1f77b4;" x="133.724966" xlink:href="#m2ca0583be2" y="285.150688"/>
     <use style="fill:#1f77b4;stroke:#1f77b4;" x="135.562178" xlink:href="#m2ca0583be2" y="285.150688"/>
     <use style="fill:#1f77b4;stroke:#1f77b4;" x="137.399389" xlink:href="#m2ca0583be2" y="285.150687"/>
     <use style="fill:#1f77b4;stroke:#1f77b4;" x="139.2366" xlink:href="#m2ca0583be2" y="285.150683"/>
     <use style="fill:#1f77b4;stroke:#1f77b4;" x="141.073812" xlink:href="#m2ca0583be2" y="285.150656"/>
     <use style="fill:#1f77b4;stroke:#1f77b4;" x="142.911023" xlink:href="#m2ca0583be2" y="285.150646"/>
     <use style="fill:#1f77b4;stroke:#1f77b4;" x="144.748234" xlink:href="#m2ca0583be2" y="285.150622"/>
     <use style="fill:#1f77b4;stroke:#1f77b4;" x="146.585446" xlink:href="#m2ca0583be2" y="285.150388"/>
     <use style="fill:#1f77b4;stroke:#1f77b4;" x="148.422657" xlink:href="#m2ca0583be2" y="285.042869"/>
     <use style="fill:#1f77b4;stroke:#1f77b4;" x="150.259868" xlink:href="#m2ca0583be2" y="284.760683"/>
     <use style="fill:#1f77b4;stroke:#1f77b4;" x="152.097079" xlink:href="#m2ca0583be2" y="284.760681"/>
     <use style="fill:#1f77b4;stroke:#1f77b4;" x="153.934291" xlink:href="#m2ca0583be2" y="284.76068"/>
     <use style="fill:#1f77b4;stroke:#1f77b4;" x="155.771502" xlink:href="#m2ca0583be2" y="284.753144"/>
     <use style="fill:#1f77b4;stroke:#1f77b4;" x="157.608713" xlink:href="#m2ca0583be2" y="284.717401"/>
     <use style="fill:#1f77b4;stroke:#1f77b4;" x="159.445925" xlink:href="#m2ca0583be2" y="284.554364"/>
     <use style="fill:#1f77b4;stroke:#1f77b4;" x="161.283136" xlink:href="#m2ca0583be2" y="284.545804"/>
     <use style="fill:#1f77b4;stroke:#1f77b4;" x="163.120347" xlink:href="#m2ca0583be2" y="284.31299"/>
     <use style="fill:#1f77b4;stroke:#1f77b4;" x="164.957559" xlink:href="#m2ca0583be2" y="284.312968"/>
     <use style="fill:#1f77b4;stroke:#1f77b4;" x="166.79477" xlink:href="#m2ca0583be2" y="284.284176"/>
     <use style="fill:#1f77b4;stroke:#1f77b4;" x="168.631981" xlink:href="#m2ca0583be2" y="284.28412"/>
     <use style="fill:#1f77b4;stroke:#1f77b4;" x="170.469192" xlink:href="#m2ca0583be2" y="284.100514"/>
     <use style="fill:#1f77b4;stroke:#1f77b4;" x="172.306404" xlink:href="#m2ca0583be2" y="284.073661"/>
     <use style="fill:#1f77b4;stroke:#1f77b4;" x="174.143615" xlink:href="#m2ca0583be2" y="284.072628"/>
     <use style="fill:#1f77b4;stroke:#1f77b4;" x="175.980826" xlink:href="#m2ca0583be2" y="283.664743"/>
     <use style="fill:#1f77b4;stroke:#1f77b4;" x="177.818038" xlink:href="#m2ca0583be2" y="283.594639"/>
     <use style="fill:#1f77b4;stroke:#1f77b4;" x="179.655249" xlink:href="#m2ca0583be2" y="283.439373"/>
     <use style="fill:#1f77b4;stroke:#1f77b4;" x="181.49246" xlink:href="#m2ca0583be2" y="283.161359"/>
     <use style="fill:#1f77b4;stroke:#1f77b4;" x="183.329672" xlink:href="#m2ca0583be2" y="283.131808"/>
     <use style="fill:#1f77b4;stroke:#1f77b4;" x="185.166883" xlink:href="#m2ca0583be2" y="282.712651"/>
     <use style="fill:#1f77b4;stroke:#1f77b4;" x="187.004094" xlink:href="#m2ca0583be2" y="282.708878"/>
     <use style="fill:#1f77b4;stroke:#1f77b4;" x="188.841305" xlink:href="#m2ca0583be2" y="282.619629"/>
     <use style="fill:#1f77b4;stroke:#1f77b4;" x="190.678517" xlink:href="#m2ca0583be2" y="281.882936"/>
     <use style="fill:#1f77b4;stroke:#1f77b4;" x="192.515728" xlink:href="#m2ca0583be2" y="281.681388"/>
     <use style="fill:#1f77b4;stroke:#1f77b4;" x="194.352939" xlink:href="#m2ca0583be2" y="281.435433"/>
     <use style="fill:#1f77b4;stroke:#1f77b4;" x="196.190151" xlink:href="#m2ca0583be2" y="281.435375"/>
     <use style="fill:#1f77b4;stroke:#1f77b4;" x="198.027362" xlink:href="#m2ca0583be2" y="281.098941"/>
     <use style="fill:#1f77b4;stroke:#1f77b4;" x="199.864573" xlink:href="#m2ca0583be2" y="280.954945"/>
     <use style="fill:#1f77b4;stroke:#1f77b4;" x="201.701784" xlink:href="#m2ca0583be2" y="280.880626"/>
     <use style="fill:#1f77b4;stroke:#1f77b4;" x="203.538996" xlink:href="#m2ca0583be2" y="280.880609"/>
     <use style="fill:#1f77b4;stroke:#1f77b4;" x="205.376207" xlink:href="#m2ca0583be2" y="280.284576"/>
     <use style="fill:#1f77b4;stroke:#1f77b4;" x="207.213418" xlink:href="#m2ca0583be2" y="279.95955"/>
     <use style="fill:#1f77b4;stroke:#1f77b4;" x="209.05063" xlink:href="#m2ca0583be2" y="279.959547"/>
     <use style="fill:#1f77b4;stroke:#1f77b4;" x="210.887841" xlink:href="#m2ca0583be2" y="279.959542"/>
     <use style="fill:#1f77b4;stroke:#1f77b4;" x="212.725052" xlink:href="#m2ca0583be2" y="279.762762"/>
     <use style="fill:#1f77b4;stroke:#1f77b4;" x="214.562264" xlink:href="#m2ca0583be2" y="279.728988"/>
     <use style="fill:#1f77b4;stroke:#1f77b4;" x="216.399475" xlink:href="#m2ca0583be2" y="279.137134"/>
     <use style="fill:#1f77b4;stroke:#1f77b4;" x="218.236686" xlink:href="#m2ca0583be2" y="279.137134"/>
     <use style="fill:#1f77b4;stroke:#1f77b4;" x="220.073897" xlink:href="#m2ca0583be2" y="279.108968"/>
     <use style="fill:#1f77b4;stroke:#1f77b4;" x="221.911109" xlink:href="#m2ca0583be2" y="279.108961"/>
     <use style="fill:#1f77b4;stroke:#1f77b4;" x="223.74832" xlink:href="#m2ca0583be2" y="278.968488"/>
     <use style="fill:#1f77b4;stroke:#1f77b4;" x="225.585531" xlink:href="#m2ca0583be2" y="278.925095"/>
     <use style="fill:#1f77b4;stroke:#1f77b4;" x="227.422743" xlink:href="#m2ca0583be2" y="278.925093"/>
     <use style="fill:#1f77b4;stroke:#1f77b4;" x="229.259954" xlink:href="#m2ca0583be2" y="278.901886"/>
     <use style="fill:#1f77b4;stroke:#1f77b4;" x="231.097165" xlink:href="#m2ca0583be2" y="278.842289"/>
     <use style="fill:#1f77b4;stroke:#1f77b4;" x="232.934377" xlink:href="#m2ca0583be2" y="278.642112"/>
     <use style="fill:#1f77b4;stroke:#1f77b4;" x="234.771588" xlink:href="#m2ca0583be2" y="278.549788"/>
     <use style="fill:#1f77b4;stroke:#1f77b4;" x="236.608799" xlink:href="#m2ca0583be2" y="278.549276"/>
     <use style="fill:#1f77b4;stroke:#1f77b4;" x="238.44601" xlink:href="#m2ca0583be2" y="278.454001"/>
     <use style="fill:#1f77b4;stroke:#1f77b4;" x="240.283222" xlink:href="#m2ca0583be2" y="278.170281"/>
     <use style="fill:#1f77b4;stroke:#1f77b4;" x="242.120433" xlink:href="#m2ca0583be2" y="278.162613"/>
     <use style="fill:#1f77b4;stroke:#1f77b4;" x="243.957644" xlink:href="#m2ca0583be2" y="278.000723"/>
     <use style="fill:#1f77b4;stroke:#1f77b4;" x="245.794856" xlink:href="#m2ca0583be2" y="277.996063"/>
     <use style="fill:#1f77b4;stroke:#1f77b4;" x="247.632067" xlink:href="#m2ca0583be2" y="277.826244"/>
     <use style="fill:#1f77b4;stroke:#1f77b4;" x="249.469278" xlink:href="#m2ca0583be2" y="277.801164"/>
     <use style="fill:#1f77b4;stroke:#1f77b4;" x="251.30649" xlink:href="#m2ca0583be2" y="277.642756"/>
     <use style="fill:#1f77b4;stroke:#1f77b4;" x="253.143701" xlink:href="#m2ca0583be2" y="277.494831"/>
     <use style="fill:#1f77b4;stroke:#1f77b4;" x="254.980912" xlink:href="#m2ca0583be2" y="276.305698"/>
     <use style="fill:#1f77b4;stroke:#1f77b4;" x="256.818123" xlink:href="#m2ca0583be2" y="276.27465"/>
     <use style="fill:#1f77b4;stroke:#1f77b4;" x="258.655335" xlink:href="#m2ca0583be2" y="275.795697"/>
     <use style="fill:#1f77b4;stroke:#1f77b4;" x="260.492546" xlink:href="#m2ca0583be2" y="274.437421"/>
     <use style="fill:#1f77b4;stroke:#1f77b4;" x="262.329757" xlink:href="#m2ca0583be2" y="274.378542"/>
     <use style="fill:#1f77b4;stroke:#1f77b4;" x="264.166969" xlink:href="#m2ca0583be2" y="274.378489"/>
     <use style="fill:#1f77b4;stroke:#1f77b4;" x="266.00418" xlink:href="#m2ca0583be2" y="274.211168"/>
     <use style="fill:#1f77b4;stroke:#1f77b4;" x="267.841391" xlink:href="#m2ca0583be2" y="274.211157"/>
     <use style="fill:#1f77b4;stroke:#1f77b4;" x="269.678603" xlink:href="#m2ca0583be2" y="274.211154"/>
     <use style="fill:#1f77b4;stroke:#1f77b4;" x="271.515814" xlink:href="#m2ca0583be2" y="273.664407"/>
     <use style="fill:#1f77b4;stroke:#1f77b4;" x="273.353025" xlink:href="#m2ca0583be2" y="273.462598"/>
     <use style="fill:#1f77b4;stroke:#1f77b4;" x="275.190236" xlink:href="#m2ca0583be2" y="272.607271"/>
     <use style="fill:#1f77b4;stroke:#1f77b4;" x="277.027448" xlink:href="#m2ca0583be2" y="272.414837"/>
     <use style="fill:#1f77b4;stroke:#1f77b4;" x="278.864659" xlink:href="#m2ca0583be2" y="270.266073"/>
     <use style="fill:#1f77b4;stroke:#1f77b4;" x="280.70187" xlink:href="#m2ca0583be2" y="270.178407"/>
     <use style="fill:#1f77b4;stroke:#1f77b4;" x="282.539082" xlink:href="#m2ca0583be2" y="268.853286"/>
     <use style="fill:#1f77b4;stroke:#1f77b4;" x="284.376293" xlink:href="#m2ca0583be2" y="268.769593"/>
     <use style="fill:#1f77b4;stroke:#1f77b4;" x="286.213504" xlink:href="#m2ca0583be2" y="267.968609"/>
     <use style="fill:#1f77b4;stroke:#1f77b4;" x="288.050716" xlink:href="#m2ca0583be2" y="267.844062"/>
     <use style="fill:#1f77b4;stroke:#1f77b4;" x="289.887927" xlink:href="#m2ca0583be2" y="267.406385"/>
     <use style="fill:#1f77b4;stroke:#1f77b4;" x="291.725138" xlink:href="#m2ca0583be2" y="266.663759"/>
     <use style="fill:#1f77b4;stroke:#1f77b4;" x="293.562349" xlink:href="#m2ca0583be2" y="265.302624"/>
     <use style="fill:#1f77b4;stroke:#1f77b4;" x="295.399561" xlink:href="#m2ca0583be2" y="265.265166"/>
     <use style="fill:#1f77b4;stroke:#1f77b4;" x="297.236772" xlink:href="#m2ca0583be2" y="262.077964"/>
     <use style="fill:#1f77b4;stroke:#1f77b4;" x="299.073983" xlink:href="#m2ca0583be2" y="252.082563"/>
     <use style="fill:#1f77b4;stroke:#1f77b4;" x="300.911195" xlink:href="#m2ca0583be2" y="252.081503"/>
     <use style="fill:#1f77b4;stroke:#1f77b4;" x="302.748406" xlink:href="#m2ca0583be2" y="251.589764"/>
     <use style="fill:#1f77b4;stroke:#1f77b4;" x="304.585617" xlink:href="#m2ca0583be2" y="251.197737"/>
     <use style="fill:#1f77b4;stroke:#1f77b4;" x="306.422828" xlink:href="#m2ca0583be2" y="251.197588"/>
     <use style="fill:#1f77b4;stroke:#1f77b4;" x="308.26004" xlink:href="#m2ca0583be2" y="251.19757"/>
     <use style="fill:#1f77b4;stroke:#1f77b4;" x="310.097251" xlink:href="#m2ca0583be2" y="250.61"/>
     <use style="fill:#1f77b4;stroke:#1f77b4;" x="311.934462" xlink:href="#m2ca0583be2" y="250.609855"/>
     <use style="fill:#1f77b4;stroke:#1f77b4;" x="313.771674" xlink:href="#m2ca0583be2" y="250.553986"/>
     <use style="fill:#1f77b4;stroke:#1f77b4;" x="315.608885" xlink:href="#m2ca0583be2" y="250.420706"/>
     <use style="fill:#1f77b4;stroke:#1f77b4;" x="317.446096" xlink:href="#m2ca0583be2" y="250.115552"/>
     <use style="fill:#1f77b4;stroke:#1f77b4;" x="319.283308" xlink:href="#m2ca0583be2" y="249.838035"/>
     <use style="fill:#1f77b4;stroke:#1f77b4;" x="321.120519" xlink:href="#m2ca0583be2" y="249.717058"/>
     <use style="fill:#1f77b4;stroke:#1f77b4;" x="322.95773" xlink:href="#m2ca0583be2" y="249.426319"/>
     <use style="fill:#1f77b4;stroke:#1f77b4;" x="324.794941" xlink:href="#m2ca0583be2" y="248.470423"/>
     <use style="fill:#1f77b4;stroke:#1f77b4;" x="326.632153" xlink:href="#m2ca0583be2" y="248.47011"/>
     <use style="fill:#1f77b4;stroke:#1f77b4;" x="328.469364" xlink:href="#m2ca0583be2" y="248.466696"/>
     <use style="fill:#1f77b4;stroke:#1f77b4;" x="330.306575" xlink:href="#m2ca0583be2" y="248.43006"/>
     <use style="fill:#1f77b4;stroke:#1f77b4;" x="332.143787" xlink:href="#m2ca0583be2" y="248.369374"/>
     <use style="fill:#1f77b4;stroke:#1f77b4;" x="333.980998" xlink:href="#m2ca0583be2" y="248.257253"/>
     <use style="fill:#1f77b4;stroke:#1f77b4;" x="335.818209" xlink:href="#m2ca0583be2" y="248.102907"/>
     <use style="fill:#1f77b4;stroke:#1f77b4;" x="337.655421" xlink:href="#m2ca0583be2" y="247.878668"/>
     <use style="fill:#1f77b4;stroke:#1f77b4;" x="339.492632" xlink:href="#m2ca0583be2" y="247.605443"/>
     <use style="fill:#1f77b4;stroke:#1f77b4;" x="341.329843" xlink:href="#m2ca0583be2" y="247.525249"/>
     <use style="fill:#1f77b4;stroke:#1f77b4;" x="343.167054" xlink:href="#m2ca0583be2" y="247.483439"/>
     <use style="fill:#1f77b4;stroke:#1f77b4;" x="345.004266" xlink:href="#m2ca0583be2" y="247.211194"/>
     <use style="fill:#1f77b4;stroke:#1f77b4;" x="346.841477" xlink:href="#m2ca0583be2" y="247.112087"/>
     <use style="fill:#1f77b4;stroke:#1f77b4;" x="348.678688" xlink:href="#m2ca0583be2" y="246.661575"/>
     <use style="fill:#1f77b4;stroke:#1f77b4;" x="350.5159" xlink:href="#m2ca0583be2" y="246.298392"/>
     <use style="fill:#1f77b4;stroke:#1f77b4;" x="352.353111" xlink:href="#m2ca0583be2" y="246.251013"/>
     <use style="fill:#1f77b4;stroke:#1f77b4;" x="354.190322" xlink:href="#m2ca0583be2" y="246.099071"/>
     <use style="fill:#1f77b4;stroke:#1f77b4;" x="356.027534" xlink:href="#m2ca0583be2" y="245.919863"/>
     <use style="fill:#1f77b4;stroke:#1f77b4;" x="357.864745" xlink:href="#m2ca0583be2" y="243.446587"/>
     <use style="fill:#1f77b4;stroke:#1f77b4;" x="359.701956" xlink:href="#m2ca0583be2" y="242.995149"/>
     <use style="fill:#1f77b4;stroke:#1f77b4;" x="361.539167" xlink:href="#m2ca0583be2" y="242.260033"/>
     <use style="fill:#1f77b4;stroke:#1f77b4;" x="363.376379" xlink:href="#m2ca0583be2" y="241.015252"/>
     <use style="fill:#1f77b4;stroke:#1f77b4;" x="365.21359" xlink:href="#m2ca0583be2" y="239.250246"/>
     <use style="fill:#1f77b4;stroke:#1f77b4;" x="367.050801" xlink:href="#m2ca0583be2" y="237.276028"/>
     <use style="fill:#1f77b4;stroke:#1f77b4;" x="368.888013" xlink:href="#m2ca0583be2" y="236.244674"/>
     <use style="fill:#1f77b4;stroke:#1f77b4;" x="370.725224" xlink:href="#m2ca0583be2" y="216.620045"/>
     <use style="fill:#1f77b4;stroke:#1f77b4;" x="372.562435" xlink:href="#m2ca0583be2" y="213.040464"/>
     <use style="fill:#1f77b4;stroke:#1f77b4;" x="374.399647" xlink:href="#m2ca0583be2" y="204.572972"/>
     <use style="fill:#1f77b4;stroke:#1f77b4;" x="376.236858" xlink:href="#m2ca0583be2" y="202.70236"/>
     <use style="fill:#1f77b4;stroke:#1f77b4;" x="378.074069" xlink:href="#m2ca0583be2" y="202.672045"/>
     <use style="fill:#1f77b4;stroke:#1f77b4;" x="379.91128" xlink:href="#m2ca0583be2" y="201.37358"/>
     <use style="fill:#1f77b4;stroke:#1f77b4;" x="381.748492" xlink:href="#m2ca0583be2" y="201.373547"/>
     <use style="fill:#1f77b4;stroke:#1f77b4;" x="383.585703" xlink:href="#m2ca0583be2" y="200.907405"/>
     <use style="fill:#1f77b4;stroke:#1f77b4;" x="385.422914" xlink:href="#m2ca0583be2" y="200.253804"/>
     <use style="fill:#1f77b4;stroke:#1f77b4;" x="387.260126" xlink:href="#m2ca0583be2" y="199.209684"/>
     <use style="fill:#1f77b4;stroke:#1f77b4;" x="389.097337" xlink:href="#m2ca0583be2" y="197.592552"/>
     <use style="fill:#1f77b4;stroke:#1f77b4;" x="390.934548" xlink:href="#m2ca0583be2" y="197.557915"/>
     <use style="fill:#1f77b4;stroke:#1f77b4;" x="392.77176" xlink:href="#m2ca0583be2" y="197.24441"/>
     <use style="fill:#1f77b4;stroke:#1f77b4;" x="394.608971" xlink:href="#m2ca0583be2" y="193.13049"/>
     <use style="fill:#1f77b4;stroke:#1f77b4;" x="396.446182" xlink:href="#m2ca0583be2" y="189.986699"/>
     <use style="fill:#1f77b4;stroke:#1f77b4;" x="398.283393" xlink:href="#m2ca0583be2" y="183.371863"/>
     <use style="fill:#1f77b4;stroke:#1f77b4;" x="400.120605" xlink:href="#m2ca0583be2" y="181.931973"/>
     <use style="fill:#1f77b4;stroke:#1f77b4;" x="401.957816" xlink:href="#m2ca0583be2" y="181.177388"/>
     <use style="fill:#1f77b4;stroke:#1f77b4;" x="403.795027" xlink:href="#m2ca0583be2" y="179.946793"/>
     <use style="fill:#1f77b4;stroke:#1f77b4;" x="405.632239" xlink:href="#m2ca0583be2" y="179.946377"/>
     <use style="fill:#1f77b4;stroke:#1f77b4;" x="407.46945" xlink:href="#m2ca0583be2" y="179.643069"/>
     <use style="fill:#1f77b4;stroke:#1f77b4;" x="409.306661" xlink:href="#m2ca0583be2" y="176.565413"/>
     <use style="fill:#1f77b4;stroke:#1f77b4;" x="411.143873" xlink:href="#m2ca0583be2" y="156.889407"/>
     <use style="fill:#1f77b4;stroke:#1f77b4;" x="412.981084" xlink:href="#m2ca0583be2" y="150.801657"/>
     <use style="fill:#1f77b4;stroke:#1f77b4;" x="414.818295" xlink:href="#m2ca0583be2" y="149.572598"/>
     <use style="fill:#1f77b4;stroke:#1f77b4;" x="416.655506" xlink:href="#m2ca0583be2" y="146.24762"/>
     <use style="fill:#1f77b4;stroke:#1f77b4;" x="418.492718" xlink:href="#m2ca0583be2" y="137.901791"/>
     <use style="fill:#1f77b4;stroke:#1f77b4;" x="420.329929" xlink:href="#m2ca0583be2" y="136.874095"/>
     <use style="fill:#1f77b4;stroke:#1f77b4;" x="422.16714" xlink:href="#m2ca0583be2" y="129.100784"/>
     <use style="fill:#1f77b4;stroke:#1f77b4;" x="424.004352" xlink:href="#m2ca0583be2" y="124.124843"/>
     <use style="fill:#1f77b4;stroke:#1f77b4;" x="425.841563" xlink:href="#m2ca0583be2" y="103.964341"/>
     <use style="fill:#1f77b4;stroke:#1f77b4;" x="427.678774" xlink:href="#m2ca0583be2" y="21.925742"/>
    </g>
   </g>
   <g id="matplotlib.axis_1">
    <g id="xtick_1">
     <g id="line2d_1">
      <defs>
       <path d="M 0 0 
L 0 3.5 
" id="mf774a1663f" style="stroke:#000000;stroke-width:0.8;"/>
      </defs>
      <g>
       <use style="stroke:#000000;stroke-width:0.8;" x="62.073726" xlink:href="#mf774a1663f" y="300.04"/>
      </g>
     </g>
     <g id="text_1">
      <!-- 0 -->
      <defs>
       <path d="M 31.78125 66.40625 
Q 24.171875 66.40625 20.328125 58.90625 
Q 16.5 51.421875 16.5 36.375 
Q 16.5 21.390625 20.328125 13.890625 
Q 24.171875 6.390625 31.78125 6.390625 
Q 39.453125 6.390625 43.28125 13.890625 
Q 47.125 21.390625 47.125 36.375 
Q 47.125 51.421875 43.28125 58.90625 
Q 39.453125 66.40625 31.78125 66.40625 
z
M 31.78125 74.21875 
Q 44.046875 74.21875 50.515625 64.515625 
Q 56.984375 54.828125 56.984375 36.375 
Q 56.984375 17.96875 50.515625 8.265625 
Q 44.046875 -1.421875 31.78125 -1.421875 
Q 19.53125 -1.421875 13.0625 8.265625 
Q 6.59375 17.96875 6.59375 36.375 
Q 6.59375 54.828125 13.0625 64.515625 
Q 19.53125 74.21875 31.78125 74.21875 
z
" id="DejaVuSans-48"/>
      </defs>
      <g transform="translate(58.892476 314.638437)scale(0.1 -0.1)">
       <use xlink:href="#DejaVuSans-48"/>
      </g>
     </g>
    </g>
    <g id="xtick_2">
     <g id="line2d_2">
      <g>
       <use style="stroke:#000000;stroke-width:0.8;" x="108.004008" xlink:href="#mf774a1663f" y="300.04"/>
      </g>
     </g>
     <g id="text_2">
      <!-- 25 -->
      <defs>
       <path d="M 19.1875 8.296875 
L 53.609375 8.296875 
L 53.609375 0 
L 7.328125 0 
L 7.328125 8.296875 
Q 12.9375 14.109375 22.625 23.890625 
Q 32.328125 33.6875 34.8125 36.53125 
Q 39.546875 41.84375 41.421875 45.53125 
Q 43.3125 49.21875 43.3125 52.78125 
Q 43.3125 58.59375 39.234375 62.25 
Q 35.15625 65.921875 28.609375 65.921875 
Q 23.96875 65.921875 18.8125 64.3125 
Q 13.671875 62.703125 7.8125 59.421875 
L 7.8125 69.390625 
Q 13.765625 71.78125 18.9375 73 
Q 24.125 74.21875 28.421875 74.21875 
Q 39.75 74.21875 46.484375 68.546875 
Q 53.21875 62.890625 53.21875 53.421875 
Q 53.21875 48.921875 51.53125 44.890625 
Q 49.859375 40.875 45.40625 35.40625 
Q 44.1875 33.984375 37.640625 27.21875 
Q 31.109375 20.453125 19.1875 8.296875 
z
" id="DejaVuSans-50"/>
       <path d="M 10.796875 72.90625 
L 49.515625 72.90625 
L 49.515625 64.59375 
L 19.828125 64.59375 
L 19.828125 46.734375 
Q 21.96875 47.46875 24.109375 47.828125 
Q 26.265625 48.1875 28.421875 48.1875 
Q 40.625 48.1875 47.75 41.5 
Q 54.890625 34.8125 54.890625 23.390625 
Q 54.890625 11.625 47.5625 5.09375 
Q 40.234375 -1.421875 26.90625 -1.421875 
Q 22.3125 -1.421875 17.546875 -0.640625 
Q 12.796875 0.140625 7.71875 1.703125 
L 7.71875 11.625 
Q 12.109375 9.234375 16.796875 8.0625 
Q 21.484375 6.890625 26.703125 6.890625 
Q 35.15625 6.890625 40.078125 11.328125 
Q 45.015625 15.765625 45.015625 23.390625 
Q 45.015625 31 40.078125 35.4375 
Q 35.15625 39.890625 26.703125 39.890625 
Q 22.75 39.890625 18.8125 39.015625 
Q 14.890625 38.140625 10.796875 36.28125 
z
" id="DejaVuSans-53"/>
      </defs>
      <g transform="translate(101.641508 314.638437)scale(0.1 -0.1)">
       <use xlink:href="#DejaVuSans-50"/>
       <use x="63.623047" xlink:href="#DejaVuSans-53"/>
      </g>
     </g>
    </g>
    <g id="xtick_3">
     <g id="line2d_3">
      <g>
       <use style="stroke:#000000;stroke-width:0.8;" x="153.934291" xlink:href="#mf774a1663f" y="300.04"/>
      </g>
     </g>
     <g id="text_3">
      <!-- 50 -->
      <g transform="translate(147.571791 314.638437)scale(0.1 -0.1)">
       <use xlink:href="#DejaVuSans-53"/>
       <use x="63.623047" xlink:href="#DejaVuSans-48"/>
      </g>
     </g>
    </g>
    <g id="xtick_4">
     <g id="line2d_4">
      <g>
       <use style="stroke:#000000;stroke-width:0.8;" x="199.864573" xlink:href="#mf774a1663f" y="300.04"/>
      </g>
     </g>
     <g id="text_4">
      <!-- 75 -->
      <defs>
       <path d="M 8.203125 72.90625 
L 55.078125 72.90625 
L 55.078125 68.703125 
L 28.609375 0 
L 18.3125 0 
L 43.21875 64.59375 
L 8.203125 64.59375 
z
" id="DejaVuSans-55"/>
      </defs>
      <g transform="translate(193.502073 314.638437)scale(0.1 -0.1)">
       <use xlink:href="#DejaVuSans-55"/>
       <use x="63.623047" xlink:href="#DejaVuSans-53"/>
      </g>
     </g>
    </g>
    <g id="xtick_5">
     <g id="line2d_5">
      <g>
       <use style="stroke:#000000;stroke-width:0.8;" x="245.794856" xlink:href="#mf774a1663f" y="300.04"/>
      </g>
     </g>
     <g id="text_5">
      <!-- 100 -->
      <defs>
       <path d="M 12.40625 8.296875 
L 28.515625 8.296875 
L 28.515625 63.921875 
L 10.984375 60.40625 
L 10.984375 69.390625 
L 28.421875 72.90625 
L 38.28125 72.90625 
L 38.28125 8.296875 
L 54.390625 8.296875 
L 54.390625 0 
L 12.40625 0 
z
" id="DejaVuSans-49"/>
      </defs>
      <g transform="translate(236.251106 314.638437)scale(0.1 -0.1)">
       <use xlink:href="#DejaVuSans-49"/>
       <use x="63.623047" xlink:href="#DejaVuSans-48"/>
       <use x="127.246094" xlink:href="#DejaVuSans-48"/>
      </g>
     </g>
    </g>
    <g id="xtick_6">
     <g id="line2d_6">
      <g>
       <use style="stroke:#000000;stroke-width:0.8;" x="291.725138" xlink:href="#mf774a1663f" y="300.04"/>
      </g>
     </g>
     <g id="text_6">
      <!-- 125 -->
      <g transform="translate(282.181388 314.638437)scale(0.1 -0.1)">
       <use xlink:href="#DejaVuSans-49"/>
       <use x="63.623047" xlink:href="#DejaVuSans-50"/>
       <use x="127.246094" xlink:href="#DejaVuSans-53"/>
      </g>
     </g>
    </g>
    <g id="xtick_7">
     <g id="line2d_7">
      <g>
       <use style="stroke:#000000;stroke-width:0.8;" x="337.655421" xlink:href="#mf774a1663f" y="300.04"/>
      </g>
     </g>
     <g id="text_7">
      <!-- 150 -->
      <g transform="translate(328.111671 314.638437)scale(0.1 -0.1)">
       <use xlink:href="#DejaVuSans-49"/>
       <use x="63.623047" xlink:href="#DejaVuSans-53"/>
       <use x="127.246094" xlink:href="#DejaVuSans-48"/>
      </g>
     </g>
    </g>
    <g id="xtick_8">
     <g id="line2d_8">
      <g>
       <use style="stroke:#000000;stroke-width:0.8;" x="383.585703" xlink:href="#mf774a1663f" y="300.04"/>
      </g>
     </g>
     <g id="text_8">
      <!-- 175 -->
      <g transform="translate(374.041953 314.638437)scale(0.1 -0.1)">
       <use xlink:href="#DejaVuSans-49"/>
       <use x="63.623047" xlink:href="#DejaVuSans-55"/>
       <use x="127.246094" xlink:href="#DejaVuSans-53"/>
      </g>
     </g>
    </g>
    <g id="xtick_9">
     <g id="line2d_9">
      <g>
       <use style="stroke:#000000;stroke-width:0.8;" x="429.515985" xlink:href="#mf774a1663f" y="300.04"/>
      </g>
     </g>
     <g id="text_9">
      <!-- 200 -->
      <g transform="translate(419.972235 314.638437)scale(0.1 -0.1)">
       <use xlink:href="#DejaVuSans-50"/>
       <use x="63.623047" xlink:href="#DejaVuSans-48"/>
       <use x="127.246094" xlink:href="#DejaVuSans-48"/>
      </g>
     </g>
    </g>
    <g id="text_10">
     <!-- run number (sorted by error) -->
     <defs>
      <path d="M 41.109375 46.296875 
Q 39.59375 47.171875 37.8125 47.578125 
Q 36.03125 48 33.890625 48 
Q 26.265625 48 22.1875 43.046875 
Q 18.109375 38.09375 18.109375 28.8125 
L 18.109375 0 
L 9.078125 0 
L 9.078125 54.6875 
L 18.109375 54.6875 
L 18.109375 46.1875 
Q 20.953125 51.171875 25.484375 53.578125 
Q 30.03125 56 36.53125 56 
Q 37.453125 56 38.578125 55.875 
Q 39.703125 55.765625 41.0625 55.515625 
z
" id="DejaVuSans-114"/>
      <path d="M 8.5 21.578125 
L 8.5 54.6875 
L 17.484375 54.6875 
L 17.484375 21.921875 
Q 17.484375 14.15625 20.5 10.265625 
Q 23.53125 6.390625 29.59375 6.390625 
Q 36.859375 6.390625 41.078125 11.03125 
Q 45.3125 15.671875 45.3125 23.6875 
L 45.3125 54.6875 
L 54.296875 54.6875 
L 54.296875 0 
L 45.3125 0 
L 45.3125 8.40625 
Q 42.046875 3.421875 37.71875 1 
Q 33.40625 -1.421875 27.6875 -1.421875 
Q 18.265625 -1.421875 13.375 4.4375 
Q 8.5 10.296875 8.5 21.578125 
z
M 31.109375 56 
z
" id="DejaVuSans-117"/>
      <path d="M 54.890625 33.015625 
L 54.890625 0 
L 45.90625 0 
L 45.90625 32.71875 
Q 45.90625 40.484375 42.875 44.328125 
Q 39.84375 48.1875 33.796875 48.1875 
Q 26.515625 48.1875 22.3125 43.546875 
Q 18.109375 38.921875 18.109375 30.90625 
L 18.109375 0 
L 9.078125 0 
L 9.078125 54.6875 
L 18.109375 54.6875 
L 18.109375 46.1875 
Q 21.34375 51.125 25.703125 53.5625 
Q 30.078125 56 35.796875 56 
Q 45.21875 56 50.046875 50.171875 
Q 54.890625 44.34375 54.890625 33.015625 
z
" id="DejaVuSans-110"/>
      <path id="DejaVuSans-32"/>
      <path d="M 52 44.1875 
Q 55.375 50.25 60.0625 53.125 
Q 64.75 56 71.09375 56 
Q 79.640625 56 84.28125 50.015625 
Q 88.921875 44.046875 88.921875 33.015625 
L 88.921875 0 
L 79.890625 0 
L 79.890625 32.71875 
Q 79.890625 40.578125 77.09375 44.375 
Q 74.3125 48.1875 68.609375 48.1875 
Q 61.625 48.1875 57.5625 43.546875 
Q 53.515625 38.921875 53.515625 30.90625 
L 53.515625 0 
L 44.484375 0 
L 44.484375 32.71875 
Q 44.484375 40.625 41.703125 44.40625 
Q 38.921875 48.1875 33.109375 48.1875 
Q 26.21875 48.1875 22.15625 43.53125 
Q 18.109375 38.875 18.109375 30.90625 
L 18.109375 0 
L 9.078125 0 
L 9.078125 54.6875 
L 18.109375 54.6875 
L 18.109375 46.1875 
Q 21.1875 51.21875 25.484375 53.609375 
Q 29.78125 56 35.6875 56 
Q 41.65625 56 45.828125 52.96875 
Q 50 49.953125 52 44.1875 
z
" id="DejaVuSans-109"/>
      <path d="M 48.6875 27.296875 
Q 48.6875 37.203125 44.609375 42.84375 
Q 40.53125 48.484375 33.40625 48.484375 
Q 26.265625 48.484375 22.1875 42.84375 
Q 18.109375 37.203125 18.109375 27.296875 
Q 18.109375 17.390625 22.1875 11.75 
Q 26.265625 6.109375 33.40625 6.109375 
Q 40.53125 6.109375 44.609375 11.75 
Q 48.6875 17.390625 48.6875 27.296875 
z
M 18.109375 46.390625 
Q 20.953125 51.265625 25.265625 53.625 
Q 29.59375 56 35.59375 56 
Q 45.5625 56 51.78125 48.09375 
Q 58.015625 40.1875 58.015625 27.296875 
Q 58.015625 14.40625 51.78125 6.484375 
Q 45.5625 -1.421875 35.59375 -1.421875 
Q 29.59375 -1.421875 25.265625 0.953125 
Q 20.953125 3.328125 18.109375 8.203125 
L 18.109375 0 
L 9.078125 0 
L 9.078125 75.984375 
L 18.109375 75.984375 
z
" id="DejaVuSans-98"/>
      <path d="M 56.203125 29.59375 
L 56.203125 25.203125 
L 14.890625 25.203125 
Q 15.484375 15.921875 20.484375 11.0625 
Q 25.484375 6.203125 34.421875 6.203125 
Q 39.59375 6.203125 44.453125 7.46875 
Q 49.3125 8.734375 54.109375 11.28125 
L 54.109375 2.78125 
Q 49.265625 0.734375 44.1875 -0.34375 
Q 39.109375 -1.421875 33.890625 -1.421875 
Q 20.796875 -1.421875 13.15625 6.1875 
Q 5.515625 13.8125 5.515625 26.8125 
Q 5.515625 40.234375 12.765625 48.109375 
Q 20.015625 56 32.328125 56 
Q 43.359375 56 49.78125 48.890625 
Q 56.203125 41.796875 56.203125 29.59375 
z
M 47.21875 32.234375 
Q 47.125 39.59375 43.09375 43.984375 
Q 39.0625 48.390625 32.421875 48.390625 
Q 24.90625 48.390625 20.390625 44.140625 
Q 15.875 39.890625 15.1875 32.171875 
z
" id="DejaVuSans-101"/>
      <path d="M 31 75.875 
Q 24.46875 64.65625 21.28125 53.65625 
Q 18.109375 42.671875 18.109375 31.390625 
Q 18.109375 20.125 21.3125 9.0625 
Q 24.515625 -2 31 -13.1875 
L 23.1875 -13.1875 
Q 15.875 -1.703125 12.234375 9.375 
Q 8.59375 20.453125 8.59375 31.390625 
Q 8.59375 42.28125 12.203125 53.3125 
Q 15.828125 64.359375 23.1875 75.875 
z
" id="DejaVuSans-40"/>
      <path d="M 44.28125 53.078125 
L 44.28125 44.578125 
Q 40.484375 46.53125 36.375 47.5 
Q 32.28125 48.484375 27.875 48.484375 
Q 21.1875 48.484375 17.84375 46.4375 
Q 14.5 44.390625 14.5 40.28125 
Q 14.5 37.15625 16.890625 35.375 
Q 19.28125 33.59375 26.515625 31.984375 
L 29.59375 31.296875 
Q 39.15625 29.25 43.1875 25.515625 
Q 47.21875 21.78125 47.21875 15.09375 
Q 47.21875 7.46875 41.1875 3.015625 
Q 35.15625 -1.421875 24.609375 -1.421875 
Q 20.21875 -1.421875 15.453125 -0.5625 
Q 10.6875 0.296875 5.421875 2 
L 5.421875 11.28125 
Q 10.40625 8.6875 15.234375 7.390625 
Q 20.0625 6.109375 24.8125 6.109375 
Q 31.15625 6.109375 34.5625 8.28125 
Q 37.984375 10.453125 37.984375 14.40625 
Q 37.984375 18.0625 35.515625 20.015625 
Q 33.0625 21.96875 24.703125 23.78125 
L 21.578125 24.515625 
Q 13.234375 26.265625 9.515625 29.90625 
Q 5.8125 33.546875 5.8125 39.890625 
Q 5.8125 47.609375 11.28125 51.796875 
Q 16.75 56 26.8125 56 
Q 31.78125 56 36.171875 55.265625 
Q 40.578125 54.546875 44.28125 53.078125 
z
" id="DejaVuSans-115"/>
      <path d="M 30.609375 48.390625 
Q 23.390625 48.390625 19.1875 42.75 
Q 14.984375 37.109375 14.984375 27.296875 
Q 14.984375 17.484375 19.15625 11.84375 
Q 23.34375 6.203125 30.609375 6.203125 
Q 37.796875 6.203125 41.984375 11.859375 
Q 46.1875 17.53125 46.1875 27.296875 
Q 46.1875 37.015625 41.984375 42.703125 
Q 37.796875 48.390625 30.609375 48.390625 
z
M 30.609375 56 
Q 42.328125 56 49.015625 48.375 
Q 55.71875 40.765625 55.71875 27.296875 
Q 55.71875 13.875 49.015625 6.21875 
Q 42.328125 -1.421875 30.609375 -1.421875 
Q 18.84375 -1.421875 12.171875 6.21875 
Q 5.515625 13.875 5.515625 27.296875 
Q 5.515625 40.765625 12.171875 48.375 
Q 18.84375 56 30.609375 56 
z
" id="DejaVuSans-111"/>
      <path d="M 18.3125 70.21875 
L 18.3125 54.6875 
L 36.8125 54.6875 
L 36.8125 47.703125 
L 18.3125 47.703125 
L 18.3125 18.015625 
Q 18.3125 11.328125 20.140625 9.421875 
Q 21.96875 7.515625 27.59375 7.515625 
L 36.8125 7.515625 
L 36.8125 0 
L 27.59375 0 
Q 17.1875 0 13.234375 3.875 
Q 9.28125 7.765625 9.28125 18.015625 
L 9.28125 47.703125 
L 2.6875 47.703125 
L 2.6875 54.6875 
L 9.28125 54.6875 
L 9.28125 70.21875 
z
" id="DejaVuSans-116"/>
      <path d="M 45.40625 46.390625 
L 45.40625 75.984375 
L 54.390625 75.984375 
L 54.390625 0 
L 45.40625 0 
L 45.40625 8.203125 
Q 42.578125 3.328125 38.25 0.953125 
Q 33.9375 -1.421875 27.875 -1.421875 
Q 17.96875 -1.421875 11.734375 6.484375 
Q 5.515625 14.40625 5.515625 27.296875 
Q 5.515625 40.1875 11.734375 48.09375 
Q 17.96875 56 27.875 56 
Q 33.9375 56 38.25 53.625 
Q 42.578125 51.265625 45.40625 46.390625 
z
M 14.796875 27.296875 
Q 14.796875 17.390625 18.875 11.75 
Q 22.953125 6.109375 30.078125 6.109375 
Q 37.203125 6.109375 41.296875 11.75 
Q 45.40625 17.390625 45.40625 27.296875 
Q 45.40625 37.203125 41.296875 42.84375 
Q 37.203125 48.484375 30.078125 48.484375 
Q 22.953125 48.484375 18.875 42.84375 
Q 14.796875 37.203125 14.796875 27.296875 
z
" id="DejaVuSans-100"/>
      <path d="M 32.171875 -5.078125 
Q 28.375 -14.84375 24.75 -17.8125 
Q 21.140625 -20.796875 15.09375 -20.796875 
L 7.90625 -20.796875 
L 7.90625 -13.28125 
L 13.1875 -13.28125 
Q 16.890625 -13.28125 18.9375 -11.515625 
Q 21 -9.765625 23.484375 -3.21875 
L 25.09375 0.875 
L 2.984375 54.6875 
L 12.5 54.6875 
L 29.59375 11.921875 
L 46.6875 54.6875 
L 56.203125 54.6875 
z
" id="DejaVuSans-121"/>
      <path d="M 8.015625 75.875 
L 15.828125 75.875 
Q 23.140625 64.359375 26.78125 53.3125 
Q 30.421875 42.28125 30.421875 31.390625 
Q 30.421875 20.453125 26.78125 9.375 
Q 23.140625 -1.703125 15.828125 -13.1875 
L 8.015625 -13.1875 
Q 14.5 -2 17.703125 9.0625 
Q 20.90625 20.125 20.90625 31.390625 
Q 20.90625 42.671875 17.703125 53.65625 
Q 14.5 64.65625 8.015625 75.875 
z
" id="DejaVuSans-41"/>
     </defs>
     <g transform="translate(172.347344 328.316562)scale(0.1 -0.1)">
      <use xlink:href="#DejaVuSans-114"/>
      <use x="41.113281" xlink:href="#DejaVuSans-117"/>
      <use x="104.492188" xlink:href="#DejaVuSans-110"/>
      <use x="167.871094" xlink:href="#DejaVuSans-32"/>
      <use x="199.658203" xlink:href="#DejaVuSans-110"/>
      <use x="263.037109" xlink:href="#DejaVuSans-117"/>
      <use x="326.416016" xlink:href="#DejaVuSans-109"/>
      <use x="423.828125" xlink:href="#DejaVuSans-98"/>
      <use x="487.304688" xlink:href="#DejaVuSans-101"/>
      <use x="548.828125" xlink:href="#DejaVuSans-114"/>
      <use x="589.941406" xlink:href="#DejaVuSans-32"/>
      <use x="621.728516" xlink:href="#DejaVuSans-40"/>
      <use x="660.742188" xlink:href="#DejaVuSans-115"/>
      <use x="712.841797" xlink:href="#DejaVuSans-111"/>
      <use x="774.023438" xlink:href="#DejaVuSans-114"/>
      <use x="815.136719" xlink:href="#DejaVuSans-116"/>
      <use x="854.345703" xlink:href="#DejaVuSans-101"/>
      <use x="915.869141" xlink:href="#DejaVuSans-100"/>
      <use x="979.345703" xlink:href="#DejaVuSans-32"/>
      <use x="1011.132812" xlink:href="#DejaVuSans-98"/>
      <use x="1074.609375" xlink:href="#DejaVuSans-121"/>
      <use x="1133.789062" xlink:href="#DejaVuSans-32"/>
      <use x="1165.576172" xlink:href="#DejaVuSans-101"/>
      <use x="1227.099609" xlink:href="#DejaVuSans-114"/>
      <use x="1268.197266" xlink:href="#DejaVuSans-114"/>
      <use x="1309.279297" xlink:href="#DejaVuSans-111"/>
      <use x="1370.460938" xlink:href="#DejaVuSans-114"/>
      <use x="1411.574219" xlink:href="#DejaVuSans-41"/>
     </g>
    </g>
   </g>
   <g id="matplotlib.axis_2">
    <g id="ytick_1">
     <g id="line2d_10">
      <defs>
       <path d="M 0 0 
L -3.5 0 
" id="m6353e4d3e6" style="stroke:#000000;stroke-width:0.8;"/>
      </defs>
      <g>
       <use style="stroke:#000000;stroke-width:0.8;" x="43.78125" xlink:href="#m6353e4d3e6" y="284.525335"/>
      </g>
     </g>
     <g id="text_11">
      <!-- 0.2 -->
      <defs>
       <path d="M 10.6875 12.40625 
L 21 12.40625 
L 21 0 
L 10.6875 0 
z
" id="DejaVuSans-46"/>
      </defs>
      <g transform="translate(20.878125 288.324553)scale(0.1 -0.1)">
       <use xlink:href="#DejaVuSans-48"/>
       <use x="63.623047" xlink:href="#DejaVuSans-46"/>
       <use x="95.410156" xlink:href="#DejaVuSans-50"/>
      </g>
     </g>
    </g>
    <g id="ytick_2">
     <g id="line2d_11">
      <g>
       <use style="stroke:#000000;stroke-width:0.8;" x="43.78125" xlink:href="#m6353e4d3e6" y="249.66386"/>
      </g>
     </g>
     <g id="text_12">
      <!-- 0.4 -->
      <defs>
       <path d="M 37.796875 64.3125 
L 12.890625 25.390625 
L 37.796875 25.390625 
z
M 35.203125 72.90625 
L 47.609375 72.90625 
L 47.609375 25.390625 
L 58.015625 25.390625 
L 58.015625 17.1875 
L 47.609375 17.1875 
L 47.609375 0 
L 37.796875 0 
L 37.796875 17.1875 
L 4.890625 17.1875 
L 4.890625 26.703125 
z
" id="DejaVuSans-52"/>
      </defs>
      <g transform="translate(20.878125 253.463079)scale(0.1 -0.1)">
       <use xlink:href="#DejaVuSans-48"/>
       <use x="63.623047" xlink:href="#DejaVuSans-46"/>
       <use x="95.410156" xlink:href="#DejaVuSans-52"/>
      </g>
     </g>
    </g>
    <g id="ytick_3">
     <g id="line2d_12">
      <g>
       <use style="stroke:#000000;stroke-width:0.8;" x="43.78125" xlink:href="#m6353e4d3e6" y="214.802385"/>
      </g>
     </g>
     <g id="text_13">
      <!-- 0.6 -->
      <defs>
       <path d="M 33.015625 40.375 
Q 26.375 40.375 22.484375 35.828125 
Q 18.609375 31.296875 18.609375 23.390625 
Q 18.609375 15.53125 22.484375 10.953125 
Q 26.375 6.390625 33.015625 6.390625 
Q 39.65625 6.390625 43.53125 10.953125 
Q 47.40625 15.53125 47.40625 23.390625 
Q 47.40625 31.296875 43.53125 35.828125 
Q 39.65625 40.375 33.015625 40.375 
z
M 52.59375 71.296875 
L 52.59375 62.3125 
Q 48.875 64.0625 45.09375 64.984375 
Q 41.3125 65.921875 37.59375 65.921875 
Q 27.828125 65.921875 22.671875 59.328125 
Q 17.53125 52.734375 16.796875 39.40625 
Q 19.671875 43.65625 24.015625 45.921875 
Q 28.375 48.1875 33.59375 48.1875 
Q 44.578125 48.1875 50.953125 41.515625 
Q 57.328125 34.859375 57.328125 23.390625 
Q 57.328125 12.15625 50.6875 5.359375 
Q 44.046875 -1.421875 33.015625 -1.421875 
Q 20.359375 -1.421875 13.671875 8.265625 
Q 6.984375 17.96875 6.984375 36.375 
Q 6.984375 53.65625 15.1875 63.9375 
Q 23.390625 74.21875 37.203125 74.21875 
Q 40.921875 74.21875 44.703125 73.484375 
Q 48.484375 72.75 52.59375 71.296875 
z
" id="DejaVuSans-54"/>
      </defs>
      <g transform="translate(20.878125 218.601604)scale(0.1 -0.1)">
       <use xlink:href="#DejaVuSans-48"/>
       <use x="63.623047" xlink:href="#DejaVuSans-46"/>
       <use x="95.410156" xlink:href="#DejaVuSans-54"/>
      </g>
     </g>
    </g>
    <g id="ytick_4">
     <g id="line2d_13">
      <g>
       <use style="stroke:#000000;stroke-width:0.8;" x="43.78125" xlink:href="#m6353e4d3e6" y="179.940911"/>
      </g>
     </g>
     <g id="text_14">
      <!-- 0.8 -->
      <defs>
       <path d="M 31.78125 34.625 
Q 24.75 34.625 20.71875 30.859375 
Q 16.703125 27.09375 16.703125 20.515625 
Q 16.703125 13.921875 20.71875 10.15625 
Q 24.75 6.390625 31.78125 6.390625 
Q 38.8125 6.390625 42.859375 10.171875 
Q 46.921875 13.96875 46.921875 20.515625 
Q 46.921875 27.09375 42.890625 30.859375 
Q 38.875 34.625 31.78125 34.625 
z
M 21.921875 38.8125 
Q 15.578125 40.375 12.03125 44.71875 
Q 8.5 49.078125 8.5 55.328125 
Q 8.5 64.0625 14.71875 69.140625 
Q 20.953125 74.21875 31.78125 74.21875 
Q 42.671875 74.21875 48.875 69.140625 
Q 55.078125 64.0625 55.078125 55.328125 
Q 55.078125 49.078125 51.53125 44.71875 
Q 48 40.375 41.703125 38.8125 
Q 48.828125 37.15625 52.796875 32.3125 
Q 56.78125 27.484375 56.78125 20.515625 
Q 56.78125 9.90625 50.3125 4.234375 
Q 43.84375 -1.421875 31.78125 -1.421875 
Q 19.734375 -1.421875 13.25 4.234375 
Q 6.78125 9.90625 6.78125 20.515625 
Q 6.78125 27.484375 10.78125 32.3125 
Q 14.796875 37.15625 21.921875 38.8125 
z
M 18.3125 54.390625 
Q 18.3125 48.734375 21.84375 45.5625 
Q 25.390625 42.390625 31.78125 42.390625 
Q 38.140625 42.390625 41.71875 45.5625 
Q 45.3125 48.734375 45.3125 54.390625 
Q 45.3125 60.0625 41.71875 63.234375 
Q 38.140625 66.40625 31.78125 66.40625 
Q 25.390625 66.40625 21.84375 63.234375 
Q 18.3125 60.0625 18.3125 54.390625 
z
" id="DejaVuSans-56"/>
      </defs>
      <g transform="translate(20.878125 183.740129)scale(0.1 -0.1)">
       <use xlink:href="#DejaVuSans-48"/>
       <use x="63.623047" xlink:href="#DejaVuSans-46"/>
       <use x="95.410156" xlink:href="#DejaVuSans-56"/>
      </g>
     </g>
    </g>
    <g id="ytick_5">
     <g id="line2d_14">
      <g>
       <use style="stroke:#000000;stroke-width:0.8;" x="43.78125" xlink:href="#m6353e4d3e6" y="145.079436"/>
      </g>
     </g>
     <g id="text_15">
      <!-- 1.0 -->
      <g transform="translate(20.878125 148.878655)scale(0.1 -0.1)">
       <use xlink:href="#DejaVuSans-49"/>
       <use x="63.623047" xlink:href="#DejaVuSans-46"/>
       <use x="95.410156" xlink:href="#DejaVuSans-48"/>
      </g>
     </g>
    </g>
    <g id="ytick_6">
     <g id="line2d_15">
      <g>
       <use style="stroke:#000000;stroke-width:0.8;" x="43.78125" xlink:href="#m6353e4d3e6" y="110.217961"/>
      </g>
     </g>
     <g id="text_16">
      <!-- 1.2 -->
      <g transform="translate(20.878125 114.01718)scale(0.1 -0.1)">
       <use xlink:href="#DejaVuSans-49"/>
       <use x="63.623047" xlink:href="#DejaVuSans-46"/>
       <use x="95.410156" xlink:href="#DejaVuSans-50"/>
      </g>
     </g>
    </g>
    <g id="ytick_7">
     <g id="line2d_16">
      <g>
       <use style="stroke:#000000;stroke-width:0.8;" x="43.78125" xlink:href="#m6353e4d3e6" y="75.356487"/>
      </g>
     </g>
     <g id="text_17">
      <!-- 1.4 -->
      <g transform="translate(20.878125 79.155705)scale(0.1 -0.1)">
       <use xlink:href="#DejaVuSans-49"/>
       <use x="63.623047" xlink:href="#DejaVuSans-46"/>
       <use x="95.410156" xlink:href="#DejaVuSans-52"/>
      </g>
     </g>
    </g>
    <g id="ytick_8">
     <g id="line2d_17">
      <g>
       <use style="stroke:#000000;stroke-width:0.8;" x="43.78125" xlink:href="#m6353e4d3e6" y="40.495012"/>
      </g>
     </g>
     <g id="text_18">
      <!-- 1.6 -->
      <g transform="translate(20.878125 44.294231)scale(0.1 -0.1)">
       <use xlink:href="#DejaVuSans-49"/>
       <use x="63.623047" xlink:href="#DejaVuSans-46"/>
       <use x="95.410156" xlink:href="#DejaVuSans-54"/>
      </g>
     </g>
    </g>
    <g id="text_19">
     <!-- error -->
     <g transform="translate(14.798438 165.92)rotate(-90)scale(0.1 -0.1)">
      <use xlink:href="#DejaVuSans-101"/>
      <use x="61.523438" xlink:href="#DejaVuSans-114"/>
      <use x="102.621094" xlink:href="#DejaVuSans-114"/>
      <use x="143.703125" xlink:href="#DejaVuSans-111"/>
      <use x="204.884766" xlink:href="#DejaVuSans-114"/>
     </g>
    </g>
   </g>
   <g id="patch_3">
    <path d="M 43.78125 300.04 
L 43.78125 7.2 
" style="fill:none;stroke:#000000;stroke-linecap:square;stroke-linejoin:miter;stroke-width:0.8;"/>
   </g>
   <g id="patch_4">
    <path d="M 445.97125 300.04 
L 445.97125 7.2 
" style="fill:none;stroke:#000000;stroke-linecap:square;stroke-linejoin:miter;stroke-width:0.8;"/>
   </g>
   <g id="patch_5">
    <path d="M 43.78125 300.04 
L 445.97125 300.04 
" style="fill:none;stroke:#000000;stroke-linecap:square;stroke-linejoin:miter;stroke-width:0.8;"/>
   </g>
   <g id="patch_6">
    <path d="M 43.78125 7.2 
L 445.97125 7.2 
" style="fill:none;stroke:#000000;stroke-linecap:square;stroke-linejoin:miter;stroke-width:0.8;"/>
   </g>
  </g>
 </g>
 <defs>
  <clipPath id="p798955dc22">
   <rect height="292.84" width="402.19" x="43.78125" y="7.2"/>
  </clipPath>
 </defs>
</svg>
